<svg width="690.000000" height="180.000000" viewBox="0 0 690 180" fill="none" xmlns="http://www.w3.org/2000/svg" xmlns:xlink="http://www.w3.org/1999/xlink">
	<desc>
			Created with Pixso.
	</desc>
	<defs/>
	<path id="logo" d="M0 0.09C7.87 0.08 15.75 0.06 23.63 0.06C24.56 0.05 25.49 0.05 26.42 0.05C26.6 0.05 26.79 0.05 26.98 0.05C29.98 0.05 32.97 0.04 35.97 0.04C39.05 0.03 42.12 0.02 45.2 0.02C47.1 0.02 49 0.02 50.89 0.01C52.19 0.01 53.5 0.01 54.8 0.01C55.55 0.01 56.3 0.01 57.05 0C57.74 0 58.43 0 59.12 0C59.48 0 59.85 0 60.21 0C61.38 0 62.39 0.12 63.51 0.45C64.69 0.84 65.77 1.32 66.79 2.02C67.87 2.86 68.92 3.8 69.74 4.9C70.25 5.76 70.61 6.68 70.98 7.61C71.08 7.87 71.08 7.87 71.19 8.13C71.85 9.79 72.47 11.47 73.1 13.15C73.43 14.05 73.76 14.95 74.1 15.85C74.17 16.03 74.23 16.21 74.3 16.4C74.96 18.17 75.63 19.94 76.3 21.7C76.52 22.29 76.75 22.87 76.97 23.46C77.02 23.6 77.08 23.74 77.13 23.89C77.68 25.32 78.21 26.75 78.75 28.18C78.8 28.3 78.84 28.43 78.89 28.56C79.09 29.07 79.28 29.58 79.47 30.09C79.84 31.08 80.21 32.08 80.59 33.07C80.65 33.22 80.7 33.38 80.76 33.53C81.06 34.33 81.36 35.13 81.66 35.92C82.26 37.53 82.87 39.14 83.47 40.74C83.84 41.74 84.22 42.74 84.59 43.73C84.67 43.93 84.74 44.13 84.82 44.33C85.81 46.99 86.82 49.64 87.86 52.28C88.37 53.58 88.85 54.89 89.31 56.21C89.89 57.84 90.5 59.45 91.11 61.07C91.23 61.4 91.36 61.74 91.48 62.07C91.75 62.76 92.01 63.45 92.27 64.15C92.85 65.7 93.44 67.26 94.02 68.81C94.2 69.29 94.38 69.76 94.56 70.23C95.06 71.57 95.57 72.92 96.06 74.26C96.75 76.13 97.45 77.98 98.17 79.83C99.88 84.22 99.88 84.22 100.64 86.45C101.31 88.42 102.1 90.36 102.87 92.3C103.47 93.82 104.04 95.35 104.58 96.89C105.16 98.53 105.77 100.16 106.38 101.78C106.51 102.12 106.64 102.46 106.77 102.79C107.63 105.09 108.51 107.39 109.39 109.68C110.06 111.42 110.72 113.17 111.37 114.92C111.44 115.12 111.52 115.32 111.59 115.52C111.67 115.73 111.75 115.94 111.83 116.16C112 116.63 112.18 117.11 112.36 117.59C112.41 117.74 112.47 117.89 112.53 118.04C112.91 119.07 113.29 120.1 113.67 121.13C113.8 121.47 113.93 121.81 114.05 122.15C115.09 125.1 115.09 125.1 116.64 127.79C117.52 128.74 118.39 129.61 119.5 130.3C120.55 130.91 121.61 131.37 122.78 131.72C123.9 131.96 125.03 131.93 126.17 131.94C126.45 131.94 126.74 131.94 127.02 131.95C127.79 131.96 128.57 131.96 129.34 131.97C130.18 131.97 131.02 131.98 131.86 131.99C133.51 132.01 135.17 132.02 136.82 132.04C138.19 132.05 139.56 132.06 140.93 132.07C141.13 132.08 141.33 132.08 141.53 132.08C141.93 132.08 142.33 132.09 142.73 132.09C147.62 132.14 152.51 132.18 157.39 132.22C158.68 132.23 159.96 132.24 161.24 132.25C172.8 132.34 184.37 132.42 195.94 132.5C203.6 132.55 211.26 132.61 218.93 132.66C220.19 132.67 221.46 132.68 222.72 132.69C233.32 132.76 243.91 132.84 254.51 132.95C254.78 132.95 254.78 132.95 255.06 132.95C255.42 132.96 255.77 132.96 256.13 132.96C259.82 133 263.51 133.03 267.2 133.05C267.48 133.05 267.77 133.06 268.06 133.06C270.38 133.07 272.7 133.09 275.02 133.1C278.6 133.12 282.19 133.15 285.77 133.18C286.49 133.19 287.21 133.2 287.93 133.2C289.04 133.21 290.15 133.22 291.26 133.24C291.67 133.24 292.07 133.25 292.47 133.25C295.44 133.27 295.44 133.27 296.69 133.55C298 133.97 299.25 134.54 300.4 135.31C301.38 136.08 302.29 136.87 303.04 137.87C304.02 139.31 304.64 140.85 305.24 142.47C305.34 142.74 305.44 143.01 305.54 143.28C305.83 144.03 306.1 144.77 306.38 145.52C306.49 145.81 306.6 146.1 306.71 146.39C306.89 146.85 307.06 147.31 307.23 147.77C307.5 148.48 307.77 149.2 308.04 149.91C309.69 154.23 309.69 154.23 310.26 155.86C310.78 157.36 311.35 158.83 311.92 160.31C312.69 162.3 313.44 164.29 314.19 166.28C315.08 168.65 315.97 171.02 316.87 173.39C316.96 173.62 317.04 173.84 317.13 174.08C317.53 175.16 317.53 175.16 317.99 176.22C318.05 176.39 318.1 176.55 318.16 176.72C318.17 177.17 318.17 177.62 318.16 178.07C300.53 178.07 282.89 178.08 254.2 178.08C253.38 178.08 252.56 178.08 251.74 178.08C231.28 178.08 210.81 178.08 111.04 177.97C110.44 177.97 109.85 177.97 109.25 177.97C94.52 177.94 79.79 177.91 65.06 177.88C64.8 177.75 64.55 177.62 64.28 177.49C64.21 177.29 64.14 177.08 64.06 176.87C62.35 172.07 62.35 172.07 60.56 167.3C60.03 165.95 59.56 164.57 59.08 163.2C58.62 161.87 58.14 160.55 57.64 159.23C57.02 157.6 56.43 155.96 55.86 154.31C55.33 152.74 54.76 151.19 54.15 149.65C53.68 148.47 53.26 147.28 52.85 146.08C52.19 144.19 51.51 142.32 50.83 140.44C50.61 139.83 50.39 139.21 50.17 138.6C48.78 134.75 47.37 130.91 45.94 127.08C45.25 125.23 44.58 123.38 43.93 121.51C43.38 119.94 42.81 118.38 42.24 116.82C41.91 115.91 41.58 115 41.25 114.09C41.17 113.89 41.1 113.7 41.03 113.5C40.46 111.93 39.89 110.36 39.32 108.79C39.27 108.67 39.23 108.55 39.18 108.42C38.96 107.81 38.74 107.2 38.52 106.6C36.86 102.01 36.86 102.01 35.18 97.42C33.96 94.13 32.77 90.83 31.58 87.52C30.76 85.26 29.94 83 29.12 80.74C27.83 77.19 26.54 73.64 25.25 70.1C25.12 69.71 24.98 69.33 24.84 68.95C24.23 67.26 23.61 65.57 23.01 63.88C22.4 62.2 21.8 60.52 21.14 58.85C20.62 57.55 20.15 56.23 19.7 54.9C18.9 52.57 18.04 50.27 17.18 47.96C16.26 45.51 15.35 43.06 14.51 40.58C14.06 39.26 13.58 37.95 13.08 36.65C12.26 34.46 11.46 32.26 10.66 30.05C10.28 29 9.91 27.95 9.53 26.89C9.41 26.59 9.41 26.59 9.3 26.27C8.24 23.31 7.15 20.37 6.06 17.42C3.74 11.17 3.74 11.17 3.03 9.1C2.65 8.01 2.26 6.93 1.87 5.86C1.81 5.7 1.75 5.54 1.69 5.38C1.34 4.42 1.34 4.42 0.99 3.46C0.82 3.01 0.66 2.56 0.5 2.11C0.45 1.97 0.4 1.84 0.34 1.7C0.22 1.36 0.11 1.02 0 0.67C0 0.48 0 0.29 0 0.09Z" fill="#FFFFFF" fill-opacity="1.000000" fill-rule="nonzero"/>
	<path id="logo" d="M202.52 0.48C211.48 0.45 220.44 0.48 229.41 0.54C229.55 0.54 229.7 0.54 229.85 0.54C230 0.54 230.15 0.54 230.3 0.54C231.34 0.55 232.38 0.56 233.41 0.56C234.7 0.57 235.98 0.57 237.27 0.58C237.93 0.59 238.6 0.59 239.27 0.6C240 0.6 240.73 0.6 241.46 0.61C241.67 0.61 241.89 0.61 242.11 0.61C243.37 0.63 244.54 0.75 245.76 1.06C246.95 1.44 248.04 1.96 249.08 2.65C250.07 3.38 250.98 4.14 251.75 5.1C252.91 6.99 253.66 9.13 254.46 11.19C254.72 11.85 254.98 12.49 255.25 13.14C255.61 14.06 255.97 14.98 256.32 15.91C256.42 16.18 256.52 16.46 256.62 16.73C256.68 16.87 256.73 17.02 256.79 17.17C259.6 24.65 262.46 32.11 265.36 39.56C265.65 40.31 265.95 41.07 266.24 41.82C266.29 41.94 266.34 42.07 266.39 42.2C267.06 43.93 267.72 45.66 268.37 47.39C269.37 50.02 270.4 52.63 271.42 55.25C272.76 58.66 274.09 62.08 275.41 65.51C275.74 66.38 276.08 67.25 276.41 68.12C277.21 70.19 278 72.25 278.79 74.32C280.41 78.6 282.07 82.86 283.73 87.13C283.88 87.53 284.04 87.93 284.2 88.33C284.38 88.8 284.56 89.26 284.74 89.73C285.32 91.23 285.9 92.73 286.47 94.23C287.21 96.17 287.95 98.1 288.69 100.04C288.92 100.63 289.15 101.23 289.38 101.82C289.54 102.23 289.69 102.64 289.85 103.04C290.38 104.43 290.92 105.82 291.45 107.21C292.24 109.27 293.03 111.33 293.82 113.39C294.03 113.93 294.24 114.47 294.45 115.02C294.78 115.89 295.11 116.75 295.45 117.62C295.57 117.94 295.69 118.26 295.81 118.57C295.98 119.01 296.15 119.45 296.32 119.89C296.4 120.09 296.4 120.09 296.48 120.3C296.87 121.31 297.28 122.3 297.72 123.29C297.78 123.44 297.83 123.59 297.89 123.75C297.89 124.01 297.89 124.26 297.89 124.52C292.4 124.53 286.91 124.53 281.42 124.53C280.77 124.53 280.12 124.53 279.47 124.53C279.34 124.53 279.21 124.53 279.08 124.53C276.99 124.53 274.9 124.54 272.82 124.54C270.67 124.54 268.52 124.54 266.38 124.54C265.17 124.54 263.97 124.54 262.77 124.54C261.63 124.54 260.49 124.55 259.36 124.54C258.94 124.54 258.53 124.55 258.12 124.55C255.47 124.55 252.84 124.48 250.2 124.33C250.1 124.08 250 123.83 249.9 123.58C249.81 123.37 249.81 123.37 249.72 123.15C249.02 121.41 248.34 119.66 247.68 117.9C246.87 115.74 246.02 113.59 245.17 111.45C244.04 108.61 242.93 105.76 241.84 102.9C241.77 102.71 241.69 102.51 241.61 102.31C241.25 101.37 240.9 100.43 240.54 99.49C239.21 96.02 237.86 92.56 236.51 89.1C233.87 82.35 231.26 75.58 228.67 68.81C228.3 67.84 227.93 66.87 227.55 65.9C227.48 65.71 227.41 65.52 227.34 65.32C226.3 62.63 225.25 59.93 224.18 57.25C223.67 55.96 223.17 54.66 222.68 53.36C221.98 51.47 221.25 49.6 220.53 47.72C220.42 47.42 220.42 47.42 220.3 47.11C219.44 44.87 218.58 42.64 217.7 40.41C216.69 37.87 215.71 35.33 214.73 32.78C214.64 32.56 214.56 32.34 214.47 32.12C213.69 30.08 212.9 28.04 212.12 26C210.99 23.05 209.85 20.1 208.67 17.17C207.84 15.12 207.05 13.06 206.26 11C205.56 9.18 204.86 7.37 204.13 5.57C203.71 4.52 203.29 3.47 202.9 2.41C202.79 2.1 202.79 2.1 202.67 1.78C202.52 1.25 202.52 1.25 202.52 0.48Z" fill="#FFFFFF" fill-opacity="1.000000" fill-rule="nonzero"/>
	<path id="logo" d="M107.72 0.09C107.87 0.1 108.01 0.1 108.16 0.1C111.73 0.12 115.29 0.15 118.85 0.17C120.58 0.18 122.3 0.19 124.02 0.2C125.53 0.22 127.03 0.23 128.54 0.24C129.33 0.24 130.13 0.25 130.92 0.25C134.85 0.28 138.78 0.29 142.7 0.29C145.43 0.29 148.15 0.3 150.88 0.32C151.82 0.33 152.77 0.34 153.71 0.34C154.65 0.34 155.58 0.35 156.52 0.36C156.87 0.36 157.22 0.36 157.57 0.36C159.5 0.36 161.24 0.49 163.09 1.03C164.41 1.5 165.51 2.22 166.64 3.05C167.58 3.77 168.41 4.54 169.12 5.5C170.37 7.35 171 9.6 171.76 11.68C171.89 12.02 172.01 12.37 172.14 12.71C172.55 13.84 172.96 14.96 173.36 16.08C173.47 16.37 173.47 16.37 173.58 16.67C174.28 18.61 174.98 20.55 175.69 22.48C176.33 24.25 176.97 26.02 177.61 27.79C178.32 29.71 179.01 31.64 179.71 33.56C179.78 33.75 179.85 33.94 179.92 34.14C180.74 36.39 181.55 38.64 182.36 40.9C183.73 44.7 185.11 48.5 186.51 52.29C187.41 54.72 188.3 57.16 189.17 59.59C190.44 63.14 191.75 66.67 193.06 70.21C192.99 70.52 192.93 70.84 192.86 71.17C180.73 71.3 168.6 71.39 156.47 71.46C155.59 71.47 154.71 71.47 153.82 71.48C151.95 71.49 150.08 71.5 148.21 71.51C147.59 71.52 146.96 71.52 146.34 71.52C142.09 71.55 137.84 71.56 133.59 71.55C133.47 71.31 133.35 71.07 133.23 70.83C133.16 70.7 133.09 70.56 133.02 70.42C132.71 69.79 132.48 69.13 132.25 68.47C132.2 68.32 132.14 68.17 132.09 68.01C131.97 67.69 131.86 67.37 131.75 67.04C131.43 66.15 131.11 65.25 130.79 64.36C130.73 64.16 130.66 63.97 130.59 63.77C129.71 61.31 128.81 58.85 127.91 56.39C127.75 55.94 127.59 55.5 127.43 55.06C127.12 54.21 126.81 53.37 126.5 52.53C125.41 49.53 124.32 46.54 123.23 43.54C122.88 42.56 122.52 41.59 122.17 40.61C122.09 40.4 122.02 40.19 121.94 39.98C119.62 33.58 117.3 27.18 114.96 20.78C113.76 17.47 112.55 14.15 111.35 10.84C110.47 8.39 109.58 5.95 108.66 3.51C107.9 1.48 107.9 1.48 107.72 0.86C107.72 0.61 107.72 0.36 107.72 0.09Z" fill="#FFFFFF" fill-opacity="1.000000" fill-rule="nonzero"/>
	<path id="logo" d="M460.83 64.62C493.77 64.62 526.71 64.62 560.64 64.62C560.64 66.38 560.58 67.96 560.08 69.65C559.77 70.54 559.41 71.33 558.91 72.13C558.78 72.13 558.65 72.13 558.52 72.13C558.52 72.26 558.52 72.39 558.52 72.52C558.01 72.77 557.5 73.03 556.98 73.29C543.92 73.29 530.86 73.29 517.4 73.29C517.46 78.12 517.53 82.95 517.59 87.93C517.59 90.15 517.59 92.38 517.59 94.67C518.65 94.67 519.71 94.67 520.8 94.66C524.34 94.66 527.87 94.66 531.4 94.66C533.54 94.66 535.68 94.66 537.82 94.65C539.69 94.65 541.56 94.65 543.43 94.65C544.41 94.65 545.4 94.65 546.38 94.65C551.91 94.64 557.43 94.72 562.96 94.86C562.96 95.19 562.97 95.52 562.97 95.86C562.97 96.04 562.97 96.23 562.97 96.42C562.95 97.29 562.81 98.12 562.64 98.98C562.58 99.24 562.58 99.24 562.53 99.51C562.24 100.92 561.86 102.23 561.22 103.53C560.88 104.14 560.51 104.72 560.07 105.26C559.62 105.67 559.25 105.96 558.71 106.22C542.28 106.32 542.28 106.32 525.51 106.42C526.4 107.12 527.29 107.82 528.21 108.54C531.59 111.18 531.59 111.18 531.93 111.45C532.15 111.63 532.38 111.8 532.6 111.98C533.16 112.41 533.71 112.85 534.26 113.28C535.53 114.27 536.79 115.26 538.06 116.24C539.43 117.31 540.8 118.38 542.17 119.45C542.73 119.89 543.29 120.33 543.85 120.77C544.07 120.94 544.3 121.12 544.52 121.3C544.69 121.43 544.69 121.43 544.86 121.56C545.88 122.36 545.88 122.36 546.21 122.62C546.44 122.8 546.66 122.97 546.89 123.15C547.44 123.59 548 124.02 548.55 124.45C548.77 124.63 548.99 124.8 549.21 124.97C549.32 125.05 549.43 125.14 549.54 125.23C550.17 125.72 550.8 126.22 551.44 126.71C553.24 128.1 555.02 129.51 556.79 130.95C558.83 132.62 560.88 134.27 562.96 135.89C563.14 136.03 563.33 136.17 563.52 136.32C563.91 136.62 564.3 136.93 564.7 137.24C564.7 137.36 564.7 137.49 564.7 137.62C558.07 137.62 551.45 137.62 544.62 137.62C542.9 136.28 542.9 136.28 541.15 134.92C540.18 134.18 539.21 133.44 538.23 132.7C537.69 132.29 537.15 131.87 536.61 131.46C535.64 130.72 534.68 129.98 533.71 129.24C532.13 128.03 530.55 126.82 528.96 125.6C527.78 124.7 526.6 123.79 525.41 122.89C523.83 121.68 522.24 120.46 520.66 119.25C519.34 118.23 518.01 117.22 516.68 116.21C515.66 115.42 514.64 114.64 513.61 113.85C512.83 113.25 512.05 112.66 511.27 112.06C510.15 111.21 509.04 110.36 507.94 109.5C507.4 109.72 507.03 109.99 506.57 110.37C506.35 110.56 506.12 110.76 505.9 110.96C505.66 111.17 505.41 111.38 505.17 111.59C505.05 111.69 504.93 111.8 504.81 111.9C504.34 112.3 503.87 112.69 503.39 113.07C502.61 113.7 501.85 114.34 501.09 114.99C500.15 115.78 499.2 116.56 498.25 117.34C497.65 117.83 497.05 118.34 496.45 118.84C495.52 119.63 494.57 120.41 493.62 121.19C493.01 121.68 492.41 122.19 491.82 122.69C490.88 123.49 489.94 124.27 488.98 125.04C488.38 125.54 487.78 126.04 487.18 126.55C486.25 127.34 485.3 128.12 484.35 128.89C483.74 129.39 483.15 129.89 482.55 130.4C481.62 131.19 480.67 131.97 479.72 132.75C479.11 133.24 478.51 133.74 477.92 134.25C476.56 135.4 475.19 136.55 473.77 137.62C467.08 137.62 460.39 137.62 453.5 137.62C453.69 137.24 453.69 137.24 453.88 136.85C454.12 136.66 454.12 136.66 454.36 136.47C455.76 135.38 457.15 134.28 458.52 133.16C459.37 132.47 460.22 131.79 461.09 131.12C462.83 129.76 464.53 128.36 466.2 126.92C466.88 126.34 467.56 125.77 468.25 125.21C469.23 124.42 470.18 123.6 471.12 122.78C472.01 122.01 472.9 121.25 473.8 120.5C474.57 119.85 475.34 119.19 476.11 118.53C476.89 117.85 477.68 117.19 478.49 116.54C479.46 115.75 480.41 114.93 481.36 114.11C482.24 113.34 483.13 112.58 484.03 111.83C484.8 111.18 485.57 110.52 486.34 109.86C487.33 109.01 488.34 108.17 489.36 107.35C489.83 106.97 489.83 106.97 490.37 106.42C478.39 106.35 466.42 106.29 454.07 106.22C455.63 101.8 455.63 101.8 456.19 100.35C456.25 100.19 456.32 100.03 456.38 99.86C456.57 99.37 456.77 98.87 456.96 98.38C457.09 98.03 457.23 97.69 457.36 97.34C457.68 96.51 458 95.69 458.32 94.86C462.53 94.63 466.74 94.61 470.95 94.57C471.98 94.56 473.01 94.55 474.05 94.54C475.99 94.52 477.94 94.5 479.88 94.48C482.1 94.46 484.32 94.44 486.54 94.42C491.1 94.37 495.66 94.33 500.22 94.28C500.22 94.15 500.23 94.02 500.23 93.88C500.33 91.16 500.44 88.44 500.59 85.73C500.61 85.42 500.62 85.11 500.64 84.8C500.67 84.17 500.71 83.54 500.74 82.9C500.79 82.09 500.83 81.29 500.87 80.48C500.91 79.85 500.94 79.22 500.98 78.58C500.99 78.29 501.01 77.99 501.02 77.69C501.05 77.28 501.07 76.86 501.09 76.45C501.11 76.1 501.11 76.1 501.13 75.74C501.19 74.92 501.28 74.1 501.37 73.29C486.79 73.29 472.2 73.29 457.16 73.29C458.29 70.36 459.57 67.49 460.83 64.62Z" fill="#FFFFFF" fill-opacity="1.000000" fill-rule="nonzero"/>
	<path id="logo" d="M576.09 93.32C599.79 93.32 623.49 93.32 647.91 93.32C647.91 102.41 647.91 111.5 647.91 120.86C633.51 120.86 619.11 120.86 604.28 120.86C604.41 119.63 604.55 118.72 604.99 117.61C605.04 117.48 605.09 117.35 605.14 117.21C605.66 115.92 606.24 114.66 607.07 113.54C607.29 113.28 607.52 113.03 607.75 112.77C609.98 112.56 612.21 112.52 614.45 112.48C614.86 112.47 615.26 112.46 615.67 112.45C616.51 112.44 617.35 112.42 618.2 112.4C619.27 112.38 620.35 112.36 621.42 112.34C622.26 112.32 623.09 112.3 623.93 112.29C624.32 112.28 624.72 112.27 625.11 112.26C625.67 112.25 626.23 112.24 626.78 112.23C627.02 112.22 627.02 112.22 627.26 112.22C628.8 112.19 630.34 112.2 631.88 112.2C631.88 109.08 631.88 105.97 631.88 102.76C618.76 102.76 605.64 102.76 592.11 102.76C592.11 110.96 592.11 119.16 592.11 127.6C609.95 127.6 627.79 127.6 646.17 127.6C647.52 128.38 647.52 128.38 648.04 128.87C648.43 129.38 648.67 129.91 648.91 130.5C649.31 131.7 649.54 132.9 649.65 134.15C649.65 134.85 649.65 135.55 649.65 136.27C625.37 136.27 601.1 136.27 576.09 136.27C576.09 122.1 576.09 107.92 576.09 93.32Z" fill="#FFFFFF" fill-opacity="1.000000" fill-rule="nonzero"/>
	<path id="logo" d="M398.67 64.43C413.57 64.43 428.48 64.43 443.84 64.43C443.84 68.15 443.84 68.15 443.59 69.19C443.34 70 443.06 70.79 442.68 71.55C442.25 72.16 442.25 72.16 441.91 72.52C441.4 72.77 440.89 73.03 440.37 73.29C437.25 73.35 434.12 73.41 430.91 73.48C430.14 74.83 430.14 74.83 429.38 76.19C429.28 76.36 429.18 76.54 429.08 76.72C428.93 76.98 428.93 76.98 428.78 77.24C428.21 78.24 427.63 79.23 427.05 80.22C432.46 80.22 437.88 80.22 443.46 80.22C443.52 80.28 443.58 80.35 443.65 80.41C443.65 84.98 443.66 89.55 443.66 94.11C443.66 96.23 443.66 98.35 443.66 100.47C443.67 102.32 443.67 104.17 443.67 106.02C443.67 107 443.67 107.97 443.67 108.95C443.67 109.87 443.67 110.79 443.67 111.72C443.67 112.05 443.67 112.39 443.67 112.73C443.67 113.19 443.67 113.65 443.67 114.12C443.67 114.31 443.67 114.31 443.67 114.52C443.67 115.5 443.57 116.4 443.46 117.4C439.95 117.4 436.45 117.4 432.84 117.4C432.84 107.99 432.84 98.58 432.84 88.89C423.86 88.89 414.87 88.89 405.62 88.89C405.68 97.53 405.74 106.18 405.81 115.08C406.57 113.56 407.34 112.03 408.13 110.46C408.8 109.22 409.47 107.98 410.15 106.75C410.45 106.22 410.74 105.68 411.02 105.14C412.25 102.84 413.58 100.66 415.08 98.52C415.81 98.02 416.49 97.6 417.34 97.31C421.64 96.32 425.94 96.35 430.33 96.4C430.04 97.36 429.63 98.21 429.17 99.1C429.06 99.32 429.06 99.32 428.94 99.54C428.7 100.02 428.45 100.49 428.2 100.96C428.04 101.29 427.87 101.62 427.7 101.94C426.74 103.8 425.77 105.66 424.79 107.5C424.26 108.5 423.73 109.51 423.21 110.51C423.11 110.7 423.02 110.88 422.92 111.07C422.62 111.64 422.32 112.21 422.03 112.77C420.86 115 419.7 117.23 418.52 119.45C417.74 120.93 416.97 122.41 416.2 123.9C415.5 125.25 414.79 126.6 414.07 127.94C413.3 129.4 412.54 130.87 411.78 132.34C410.89 134.04 409.99 135.73 409.09 137.43C404.25 137.43 399.41 137.43 394.42 137.43C394.85 136.13 394.85 136.13 395.18 135.5C395.25 135.36 395.32 135.22 395.4 135.07C395.48 134.92 395.55 134.77 395.63 134.61C395.72 134.46 395.8 134.3 395.88 134.13C396.15 133.61 396.42 133.09 396.69 132.58C396.87 132.22 397.06 131.86 397.24 131.5C397.78 130.46 398.32 129.42 398.86 128.38C398.93 128.24 399 128.1 399.07 127.96C399.79 126.58 400.51 125.2 401.22 123.82C401.88 122.57 402.53 121.31 403.18 120.06C403.6 119.24 404.02 118.43 404.46 117.59C399.68 117.49 399.68 117.49 394.81 117.4C394.83 113.91 394.85 110.43 394.87 106.94C394.88 105.32 394.89 103.7 394.9 102.08C394.94 94.86 395 87.64 395.19 80.41C397.26 80.23 399.3 80.2 401.37 80.2C401.69 80.2 402.02 80.2 402.34 80.2C403.19 80.2 404.04 80.21 404.88 80.21C405.75 80.21 406.62 80.21 407.48 80.21C409.18 80.21 410.87 80.22 412.57 80.22C412.62 80.07 412.68 79.93 412.74 79.77C412.98 79.18 413.28 78.65 413.6 78.1C413.73 77.88 413.86 77.67 413.99 77.44C414.12 77.21 414.26 76.98 414.39 76.75C414.52 76.53 414.65 76.3 414.79 76.07C415.33 75.14 415.87 74.21 416.43 73.29C409.23 73.29 402.03 73.29 394.61 73.29C394.85 72.59 395.05 71.97 395.36 71.31C395.43 71.16 395.5 71.01 395.57 70.86C395.64 70.7 395.71 70.54 395.79 70.38C395.87 70.22 395.94 70.05 396.02 69.88C396.18 69.54 396.34 69.19 396.5 68.85C396.75 68.31 396.99 67.78 397.24 67.25C397.4 66.91 397.55 66.58 397.71 66.24C397.78 66.08 397.86 65.92 397.93 65.76C398.11 65.38 398.29 65 398.47 64.62C398.54 64.56 398.6 64.49 398.67 64.43Z" fill="#FFFFFF" fill-opacity="1.000000" fill-rule="nonzero"/>
	<path id="logo" d="M389.79 64.62C389.79 88.65 389.79 112.67 389.79 137.43C384.56 137.43 379.34 137.43 373.95 137.43C373.95 114.23 373.95 91.03 373.95 67.12C374.96 66.87 375.9 66.66 376.92 66.5C377.06 66.48 377.19 66.46 377.33 66.44C377.76 66.37 378.19 66.3 378.63 66.24C378.93 66.19 379.24 66.14 379.54 66.1C380.17 66 380.81 65.9 381.44 65.8C382.25 65.68 383.07 65.55 383.88 65.43C384.5 65.33 385.13 65.24 385.75 65.14C386.05 65.09 386.35 65.05 386.65 65C387.07 64.94 387.49 64.87 387.91 64.81C388.14 64.77 388.38 64.74 388.63 64.7C389.21 64.62 389.21 64.62 389.79 64.62Z" fill="#FFFFFF" fill-opacity="1.000000" fill-rule="nonzero"/>
	<path id="logo" d="M346.54 64.62C346.62 71.63 346.67 78.64 346.7 85.65C346.7 85.91 346.7 86.18 346.7 86.45C346.75 99.72 346.8 112.95 345.3 126.16C345.28 126.29 345.27 126.42 345.25 126.56C344.91 129.59 344.53 132.62 344.09 135.64C344.01 136.24 343.92 136.83 343.84 137.43C338.74 137.43 333.64 137.43 328.39 137.43C328.61 133.24 328.61 133.24 328.78 131.77C328.82 131.42 328.86 131.06 328.9 130.71C328.92 130.52 328.94 130.34 328.96 130.15C330.38 116.97 330.8 103.94 330.74 90.69C330.73 88.89 330.73 87.09 330.73 85.29C330.73 85.16 330.73 85.03 330.73 84.9C330.73 84.24 330.73 83.59 330.73 82.94C330.74 77.67 330.73 72.4 330.71 67.12C330.98 67.06 331.26 67 331.53 66.94C331.69 66.9 331.84 66.87 332 66.84C332.62 66.7 333.25 66.6 333.88 66.5C334.01 66.48 334.14 66.46 334.27 66.44C334.7 66.37 335.13 66.3 335.55 66.24C335.85 66.19 336.15 66.14 336.45 66.1C337.07 66 337.7 65.9 338.32 65.8C339.12 65.68 339.92 65.55 340.72 65.43C341.33 65.33 341.95 65.24 342.57 65.14C342.86 65.09 343.16 65.05 343.45 65C343.86 64.94 344.27 64.87 344.68 64.81C344.92 64.77 345.15 64.74 345.39 64.7C345.96 64.62 345.96 64.62 346.54 64.62Z" fill="#FFFFFF" fill-opacity="1.000000" fill-rule="nonzero"/>
	<path id="logo" d="M690 63.66C690 87.62 690 111.58 690 136.27C684.98 136.27 679.96 136.2 674.94 136.08C674.94 113.01 674.94 89.93 674.94 66.16C675.91 65.92 676.83 65.7 677.81 65.54C677.94 65.52 678.06 65.5 678.19 65.47C678.59 65.41 678.99 65.34 679.39 65.27C679.67 65.23 679.96 65.18 680.24 65.13C680.82 65.04 681.41 64.94 682 64.84C682.75 64.72 683.5 64.59 684.26 64.47C684.84 64.37 685.42 64.27 686 64.18C686.27 64.13 686.55 64.08 686.83 64.04C687.22 63.97 687.6 63.91 687.99 63.85C688.32 63.79 688.32 63.79 688.66 63.73C689.22 63.66 689.22 63.66 690 63.66Z" fill="#FFFFFF" fill-opacity="1.000000" fill-rule="nonzero"/>
	<path id="logo" d="M594.03 65.56C594.56 65.56 595.08 65.56 595.61 65.56C596.73 65.56 597.86 65.56 598.99 65.56C600.61 65.56 602.24 65.56 603.87 65.56C606.52 65.57 609.16 65.57 611.8 65.57C614.37 65.57 616.93 65.57 619.5 65.57C619.66 65.57 619.82 65.57 619.98 65.57C620.77 65.57 621.57 65.57 622.36 65.57C628.95 65.58 635.53 65.58 642.12 65.58C642.42 66.34 642.73 67.1 643.03 67.87C643.16 68.19 643.16 68.19 643.29 68.51C644.07 70.45 644.82 72.41 645.56 74.37C645.84 75.12 646.12 75.86 646.4 76.6C646.47 76.8 646.54 76.99 646.62 77.19C647.22 78.78 647.83 80.38 648.44 81.97C648.54 82.21 648.63 82.46 648.72 82.7C649.09 83.67 649.47 84.63 649.84 85.6C650.1 86.27 650.35 86.94 650.61 87.61C650.73 87.91 650.73 87.91 650.85 88.22C650.92 88.41 650.99 88.59 651.06 88.78C651.13 88.94 651.19 89.1 651.25 89.27C651.3 89.4 651.34 89.53 651.38 89.66C651.38 89.79 651.38 89.91 651.38 90.04C645.84 90.04 640.3 90.04 634.59 90.04C634.02 88.79 633.46 87.56 632.98 86.28C632.92 86.13 632.86 85.98 632.8 85.83C632.62 85.35 632.44 84.88 632.26 84.4C632 83.73 631.75 83.06 631.49 82.39C631.43 82.23 631.36 82.06 631.3 81.89C630.88 80.81 630.46 79.73 630.02 78.66C629.94 78.46 629.94 78.46 629.86 78.25C629.6 77.62 629.34 76.99 629.09 76.36C629 76.14 628.91 75.92 628.81 75.69C628.74 75.5 628.66 75.31 628.58 75.11C628.52 74.96 628.46 74.8 628.41 74.64C628.41 74.44 628.41 74.25 628.41 74.06C618.85 74.06 609.3 74.06 599.45 74.06C599.32 74.38 599.19 74.69 599.06 75.02C598.9 75.34 598.74 75.66 598.57 75.97C598.42 76.24 598.42 76.24 598.27 76.52C598.16 76.72 598.05 76.91 597.94 77.12C597.83 77.32 597.72 77.53 597.6 77.74C596.44 79.86 595.24 81.97 594.04 84.07C593.15 85.66 592.26 87.25 591.34 88.89C585.73 88.89 580.13 88.89 574.35 88.89C574.65 88 574.97 87.23 575.4 86.41C575.46 86.29 575.53 86.16 575.59 86.03C575.81 85.62 576.02 85.22 576.23 84.81C576.38 84.52 576.53 84.23 576.68 83.95C577.06 83.22 577.43 82.5 577.81 81.78C578.22 80.98 578.64 80.19 579.05 79.4C579.27 78.98 579.48 78.57 579.7 78.15C580.6 76.41 581.5 74.67 582.4 72.93C583.63 70.54 584.87 68.15 586.13 65.78C588.76 65.51 591.39 65.56 594.03 65.56Z" fill="#FFFFFF" fill-opacity="1.000000" fill-rule="nonzero"/>
	<path id="logo" d="M368.16 70.21C368.16 90.35 368.16 110.5 368.16 131.26C362.87 131.26 357.59 131.26 352.14 131.26C352.14 111.94 352.14 92.62 352.14 72.71C367.76 70.21 367.76 70.21 368.16 70.21Z" fill="#FFFFFF" fill-opacity="1.000000" fill-rule="nonzero"/>
	<path id="logo" d="M669.92 68.28C669.92 89.26 669.92 110.23 669.92 131.84C665.14 131.84 660.36 131.84 655.44 131.84C655.44 111.63 655.44 91.42 655.44 70.59C656.32 70.34 657.11 70.13 658 69.99C658.23 69.95 658.46 69.91 658.7 69.87C658.95 69.83 659.2 69.79 659.45 69.75C659.71 69.7 659.97 69.66 660.23 69.62C660.77 69.53 661.31 69.44 661.85 69.35C662.54 69.24 663.23 69.13 663.92 69.01C664.45 68.92 664.99 68.84 665.52 68.75C665.9 68.69 666.27 68.63 666.65 68.56C666.88 68.53 667.11 68.49 667.35 68.45C667.66 68.4 667.66 68.4 667.97 68.35C668.57 68.28 668.57 68.28 669.92 68.28Z" fill="#FFFFFF" fill-opacity="1.000000" fill-rule="nonzero"/>
	<path id="logo" d="M666.63 157.46C674.34 157.46 682.05 157.46 690 157.46C690 164.9 690 172.33 690 180C682.6 180 675.21 180 667.6 180C667.22 179.17 666.84 178.34 666.44 177.49C666.44 177.36 666.44 177.24 666.44 177.11C671.6 177.11 676.76 177.11 682.08 177.11C682.08 176.09 682.08 175.07 682.08 174.02C676.98 174.02 671.89 174.02 666.63 174.02C666.63 168.56 666.63 163.09 666.63 157.46Z" fill="#FFFFFF" fill-opacity="1.000000" fill-rule="nonzero"/>
	<path id="logo" d="M480.14 157.46C487.59 157.46 495.05 157.46 502.73 157.46C502.73 161.97 502.73 166.49 502.73 171.14C503.49 171.14 504.26 171.14 505.04 171.14C504.47 172.19 503.85 173.04 503.11 174.02C495.53 174.02 487.95 174.02 480.14 174.02C480.14 168.56 480.14 163.09 480.14 157.46Z" fill="#FFFFFF" fill-opacity="1.000000" fill-rule="nonzero"/>
	<path id="logo" d="M612.39 157.46C619.84 157.46 627.29 157.46 634.97 157.46C634.97 161.97 634.97 166.49 634.97 171.14C635.74 171.14 636.5 171.14 637.29 171.14C637.08 171.47 636.86 171.81 636.65 172.15C636.47 172.43 636.47 172.43 636.29 172.72C636 173.16 635.68 173.6 635.36 174.02C627.78 174.02 620.2 174.02 612.39 174.02C612.39 168.56 612.39 163.09 612.39 157.46Z" fill="#FFFFFF" fill-opacity="1.000000" fill-rule="nonzero"/>
	<path id="logo" d="M326.85 150.72C336.21 150.72 345.58 150.72 355.23 150.72C354.84 151.87 354.84 151.87 353.88 153.8C347.7 153.8 341.52 153.8 335.15 153.8C335.15 156.02 335.15 158.25 335.15 160.54C341.46 160.54 347.76 160.54 354.26 160.54C354.26 164.99 354.26 169.44 354.26 174.02C345.15 174.02 336.04 174.02 326.65 174.02C326.65 172.94 326.65 171.86 326.65 170.75C333.03 170.75 339.4 170.75 345.96 170.75C345.9 167.57 345.83 164.39 345.77 161.12C344.91 162.07 344.91 162.07 344.03 163.05C343.84 163.24 343.65 163.43 343.45 163.62C337.97 163.62 332.49 163.62 326.85 163.62C326.85 159.36 326.85 155.11 326.85 150.72Z" fill="#FFFFFF" fill-opacity="1.000000" fill-rule="nonzero"/>
	<path id="logo" d="M560.26 150.72C562.87 150.72 565.48 150.72 568.17 150.72C568.17 152.94 568.17 155.17 568.17 157.46C573.14 157.46 578.11 157.46 583.23 157.46C583.23 162.93 583.23 168.39 583.23 174.02C580.62 174.02 578.01 174.02 575.32 174.02C575.25 168.81 575.19 163.6 575.12 158.23C574.49 158.99 573.85 159.75 573.19 160.54C571.54 160.54 569.88 160.54 568.17 160.54C568.17 164.99 568.17 169.44 568.17 174.02C565.56 174.02 562.95 174.02 560.26 174.02C560.26 166.33 560.26 158.64 560.26 150.72Z" fill="#FFFFFF" fill-opacity="1.000000" fill-rule="nonzero"/>
	<path id="logo" d="M358.32 150.72C360.93 150.72 363.54 150.72 366.23 150.72C366.23 152.94 366.23 155.17 366.23 157.46C371.2 157.46 376.17 157.46 381.29 157.46C381.29 162.93 381.29 168.39 381.29 174.02C378.68 174.02 376.07 174.02 373.38 174.02C373.31 168.81 373.25 163.6 373.18 158.23C372.55 158.99 371.91 159.75 371.25 160.54C369.6 160.54 367.94 160.54 366.23 160.54C366.23 164.99 366.23 169.44 366.23 174.02C363.62 174.02 361.01 174.02 358.32 174.02C358.32 166.33 358.32 158.64 358.32 150.72Z" fill="#FFFFFF" fill-opacity="1.000000" fill-rule="nonzero"/>
	<path id="logo" d="M586.32 157.65C588.93 157.65 591.55 157.65 594.24 157.65C594.24 161.97 594.24 166.3 594.24 170.75C596.59 170.75 598.95 170.75 601.38 170.75C601.38 166.43 601.38 162.11 601.38 157.65C604.06 157.65 606.73 157.65 609.49 157.65C609.49 163.06 609.49 168.46 609.49 174.02C606.81 174.02 604.14 174.02 601.38 174.02C601.32 173.33 601.25 172.63 601.19 171.91C600.74 172.6 600.3 173.3 599.84 174.02C595.38 174.02 590.92 174.02 586.32 174.02C586.32 168.62 586.32 163.22 586.32 157.65Z" fill="#FFFFFF" fill-opacity="1.000000" fill-rule="nonzero"/>
	<path id="logo" d="M410.44 157.46C418.09 157.46 425.73 157.46 433.61 157.46C433.61 162.86 433.61 168.27 433.61 173.83C431 173.83 428.39 173.83 425.7 173.83C425.63 168.68 425.57 163.53 425.5 158.23C424.8 158.99 424.1 159.75 423.38 160.54C421.72 160.54 420.07 160.54 418.36 160.54C418.36 164.93 418.36 169.31 418.36 173.83C415.75 173.83 413.13 173.83 410.44 173.83C410.44 168.43 410.44 163.03 410.44 157.46Z" fill="#FFFFFF" fill-opacity="1.000000" fill-rule="nonzero"/>
	<path id="logo" d="M508.13 157.46C515.78 157.46 523.42 157.46 531.3 157.46C531.3 162.86 531.3 168.27 531.3 173.83C528.69 173.83 526.08 173.83 523.38 173.83C523.32 168.68 523.26 163.53 523.19 158.23C522.05 159.32 522.05 159.32 521.07 160.54C519.41 160.54 517.75 160.54 516.05 160.54C516.05 164.93 516.05 169.31 516.05 173.83C513.44 173.83 510.82 173.83 508.13 173.83C508.13 168.43 508.13 163.03 508.13 157.46Z" fill="#FFFFFF" fill-opacity="1.000000" fill-rule="nonzero"/>
	<path id="logo" d="M640.19 157.46C647.83 157.46 655.48 157.46 663.35 157.46C663.35 162.86 663.35 168.27 663.35 173.83C660.8 173.83 658.26 173.83 655.63 173.83C655.57 168.68 655.5 163.53 655.44 158.23C654.67 158.99 653.91 159.75 653.12 160.54C651.53 160.54 649.94 160.54 648.29 160.54C648.29 164.93 648.29 169.31 648.29 173.83C645.62 173.83 642.94 173.83 640.19 173.83C640.19 168.43 640.19 163.03 640.19 157.46Z" fill="#FFFFFF" fill-opacity="1.000000" fill-rule="nonzero"/>
	<path id="logo" d="M384.38 157.65C386.93 157.65 389.48 157.65 392.1 157.65C392.1 161.97 392.1 166.3 392.1 170.75C394.52 170.75 396.94 170.75 399.44 170.75C399.44 166.43 399.44 162.11 399.44 157.65C402.05 157.65 404.66 157.65 407.35 157.65C407.35 163.06 407.35 168.46 407.35 174.02C404.74 174.02 402.13 174.02 399.44 174.02C399.38 173.33 399.31 172.63 399.25 171.91C398.8 172.6 398.35 173.3 397.89 174.02C393.43 174.02 388.97 174.02 384.38 174.02C384.38 168.62 384.38 163.22 384.38 157.65Z" fill="#FFFFFF" fill-opacity="1.000000" fill-rule="nonzero"/>
	<path id="logo" d="M436.7 150.72C446.45 150.72 456.19 150.72 466.24 150.72C465.85 151.68 465.85 151.68 464.5 153.99C461.44 153.99 458.38 153.99 455.23 153.99C455.23 160.6 455.23 167.21 455.23 174.02C452.49 174.02 449.75 174.02 446.93 174.02C446.93 167.41 446.93 160.8 446.93 153.99C443.56 153.99 440.18 153.99 436.7 153.99C436.7 152.91 436.7 151.83 436.7 150.72Z" fill="#FFFFFF" fill-opacity="1.000000" fill-rule="nonzero"/>
	<path id="logo" d="M429.27 121.03C430.02 121.2 430.75 121.41 431.49 121.63C431.76 121.71 431.76 121.71 432.04 121.79C432.53 121.96 432.96 122.15 433.42 122.4C434.86 123.48 436.02 124.82 437.09 126.26C437.76 127.2 438.39 128.17 439.02 129.14C439.11 129.28 439.19 129.42 439.29 129.56C440.87 132.02 442.37 134.52 443.84 137.04C443.84 137.17 443.84 137.3 443.84 137.43C439 137.43 434.16 137.43 429.17 137.43C428.29 136.13 427.4 134.82 426.49 133.48C426.08 132.87 426.08 132.87 425.66 132.25C424.51 130.56 423.38 128.86 422.3 127.12C421.53 125.88 420.71 124.67 419.88 123.46C419.73 123.25 419.58 123.03 419.43 122.81C419.07 122.29 418.72 121.77 418.36 121.25C418.36 121.06 418.36 120.87 418.36 120.67C421.94 120.26 425.73 120.3 429.27 121.03Z" fill="#FFFFFF" fill-opacity="1.000000" fill-rule="nonzero"/>
	<path id="logo" d="M534.2 157.46C541.78 157.46 549.36 157.46 557.17 157.46C556.98 158.42 556.98 158.42 556.01 160.54C551.42 160.54 546.84 160.54 542.11 160.54C542.11 163.97 542.11 167.41 542.11 170.94C547.08 170.94 552.05 170.94 557.17 170.94C556.74 172.01 556.18 173.02 555.63 174.02C548.55 174.02 541.48 174.02 534.2 174.02C534.2 168.56 534.2 163.09 534.2 157.46Z" fill="#FFFFFF" fill-opacity="1.000000" fill-rule="nonzero"/>
	<path id="logo" d="M469.33 157.46C471.94 157.46 474.55 157.46 477.24 157.46C477.24 162.93 477.24 168.39 477.24 174.02C474.63 174.02 472.02 174.02 469.33 174.02C469.33 168.56 469.33 163.09 469.33 157.46Z" fill="#FFFFFF" fill-opacity="1.000000" fill-rule="nonzero"/>
	<path id="logo" d="M681.89 158.04C681.95 158.04 682.01 158.04 682.08 158.04C682.08 162.3 682.08 166.55 682.08 170.94C679.6 170.94 677.11 170.94 674.55 170.94C674.55 167.51 674.55 164.08 674.55 160.54C676.4 160.48 678.25 160.41 680.15 160.35C680.72 159.59 681.3 158.82 681.89 158.04Z" fill="#FFFFFF" fill-opacity="1.000000" fill-rule="nonzero"/>
	<path id="logo" d="M495 158.04C495.07 158.04 495.13 158.04 495.2 158.04C495.2 162.36 495.2 166.68 495.2 171.14C492.84 171.14 490.48 171.14 488.05 171.14C488.05 167.64 488.05 164.14 488.05 160.54C489.84 160.48 491.62 160.41 493.46 160.35C493.97 159.59 494.48 158.82 495 158.04Z" fill="#FFFFFF" fill-opacity="1.000000" fill-rule="nonzero"/>
	<path id="logo" d="M627.06 158.23C627.12 158.23 627.18 158.23 627.25 158.23C627.25 162.49 627.25 166.75 627.25 171.14C624.96 171.14 622.66 171.14 620.3 171.14C620.3 167.64 620.3 164.14 620.3 160.54C622.08 160.48 623.87 160.41 625.71 160.35C626.15 159.65 626.6 158.95 627.06 158.23Z" fill="#FFFFFF" fill-opacity="1.000000" fill-rule="nonzero"/>
	<path id="logo" d="M469.33 150.72C471.94 150.72 474.55 150.72 477.24 150.72C477.24 152.43 477.24 154.15 477.24 155.92C474.63 155.92 472.02 155.92 469.33 155.92C469.33 154.2 469.33 152.49 469.33 150.72Z" fill="#FFFFFF" fill-opacity="1.000000" fill-rule="nonzero"/>
</svg>
