<svg width="237.000000" height="62.000000" viewBox="0 0 237 62" fill="none" xmlns="http://www.w3.org/2000/svg" xmlns:xlink="http://www.w3.org/1999/xlink">
	<desc>
			Created with Pixso.
	</desc>
	<defs/>
	<path id="logo" d="M0 0.03C2.7 0.02 5.41 0.02 8.11 0.02C8.43 0.02 8.75 0.02 9.07 0.01C9.13 0.01 9.2 0.01 9.26 0.01C10.29 0.01 11.32 0.01 12.35 0.01C13.41 0.01 14.47 0 15.52 0C16.17 0 16.83 0 17.48 0C17.92 0 18.37 0 18.82 0C19.08 0 19.33 0 19.59 0C19.83 0 20.07 0 20.3 0C20.43 0 20.55 0 20.68 0C21.08 0 21.43 0.04 21.81 0.15C22.22 0.29 22.59 0.45 22.94 0.69C23.31 0.98 23.67 1.31 23.95 1.68C24.13 1.98 24.25 2.3 24.38 2.62C24.41 2.71 24.41 2.71 24.45 2.8C24.67 3.37 24.89 3.95 25.1 4.53C25.22 4.84 25.33 5.15 25.45 5.46C25.47 5.52 25.49 5.58 25.52 5.65C25.74 6.26 25.97 6.86 26.21 7.47C26.28 7.67 26.36 7.88 26.43 8.08C26.45 8.13 26.47 8.17 26.49 8.22C26.68 8.72 26.86 9.21 27.05 9.7C27.06 9.75 27.08 9.79 27.09 9.83C27.16 10.01 27.23 10.18 27.29 10.36C27.42 10.7 27.55 11.05 27.68 11.39C27.7 11.44 27.72 11.49 27.74 11.55C27.84 11.82 27.94 12.1 28.05 12.37C28.25 12.92 28.46 13.48 28.67 14.03C28.8 14.37 28.92 14.72 29.05 15.06C29.08 15.13 29.1 15.2 29.13 15.27C29.47 16.18 29.82 17.09 30.18 18C30.35 18.45 30.52 18.9 30.67 19.36C30.87 19.92 31.08 20.48 31.29 21.03C31.33 21.15 31.38 21.26 31.42 21.38C31.51 21.61 31.6 21.85 31.69 22.09C31.89 22.63 32.09 23.16 32.29 23.7C32.35 23.86 32.41 24.02 32.48 24.19C32.65 24.65 32.82 25.11 32.99 25.58C33.23 26.22 33.47 26.86 33.72 27.49C34.3 29.01 34.3 29.01 34.56 29.77C34.8 30.45 35.07 31.12 35.33 31.79C35.54 32.31 35.73 32.84 35.92 33.37C36.12 33.94 36.33 34.49 36.54 35.06L36.67 35.4C36.97 36.2 37.27 36.99 37.57 37.78C37.8 38.38 38.03 38.98 38.25 39.58C38.27 39.65 38.3 39.72 38.33 39.79C38.35 39.86 38.38 39.93 38.41 40.01C38.47 40.17 38.53 40.34 38.59 40.5C38.61 40.55 38.63 40.6 38.65 40.66C38.78 41.01 38.91 41.36 39.04 41.72C39.08 41.84 39.13 41.95 39.17 42.07C39.53 43.09 39.53 43.09 40.06 44.01C40.36 44.34 40.66 44.64 41.04 44.88C41.4 45.09 41.77 45.25 42.17 45.37C42.51 45.44 42.86 45.44 43.22 45.44C43.26 45.44 43.29 45.44 43.33 45.44C43.43 45.44 43.53 45.44 43.62 45.45C43.89 45.45 44.16 45.45 44.42 45.45C44.71 45.45 45 45.46 45.29 45.46C45.86 45.47 46.42 45.47 46.99 45.48C47.46 45.48 47.93 45.48 48.4 45.49C48.47 45.49 48.54 45.49 48.61 45.49C48.75 45.49 48.88 45.49 49.02 45.49C50.7 45.51 52.38 45.52 54.06 45.54C54.5 45.54 54.94 45.55 55.38 45.55C59.35 45.58 63.32 45.61 67.3 45.64C69.93 45.65 72.56 45.67 75.19 45.69C75.63 45.69 76.06 45.7 76.5 45.7C80.14 45.73 83.78 45.75 87.42 45.79L87.6 45.79L87.97 45.8C89.24 45.81 90.51 45.82 91.77 45.83L92.07 45.83C92.87 45.83 93.66 45.84 94.46 45.84C95.69 45.85 96.92 45.86 98.15 45.87C98.4 45.87 98.65 45.88 98.89 45.88C99.28 45.88 99.66 45.88 100.04 45.89C100.18 45.89 100.32 45.89 100.45 45.89C101.47 45.9 101.47 45.9 101.9 46C102.35 46.14 102.78 46.34 103.18 46.6C103.51 46.87 103.83 47.14 104.09 47.48C104.42 47.98 104.63 48.51 104.84 49.07C104.87 49.16 104.91 49.26 104.94 49.35C105.04 49.61 105.14 49.86 105.23 50.12C105.27 50.22 105.31 50.32 105.35 50.42C105.41 50.58 105.46 50.74 105.52 50.89C105.62 51.14 105.71 51.39 105.8 51.63C106.37 53.12 106.37 53.12 106.56 53.68C106.74 54.2 106.94 54.71 107.14 55.22C107.4 55.9 107.66 56.59 107.91 57.27C108.22 58.09 108.53 58.9 108.83 59.72L108.92 59.96C109.06 60.33 109.06 60.33 109.22 60.69C109.24 60.75 109.26 60.81 109.28 60.87C109.28 60.95 109.28 61.02 109.28 61.1C109.28 61.18 109.28 61.26 109.28 61.33C103.22 61.33 97.16 61.33 87.31 61.34L86.46 61.34C79.43 61.34 72.41 61.34 38.14 61.3C37.93 61.3 37.73 61.3 37.52 61.3C32.46 61.29 27.4 61.28 22.34 61.27C22.25 61.22 22.17 61.18 22.08 61.13C22.05 61.06 22.03 60.99 22 60.92C21.41 59.26 21.41 59.26 20.8 57.62C20.62 57.16 20.45 56.68 20.29 56.21C20.13 55.75 19.97 55.3 19.79 54.84C19.58 54.28 19.38 53.72 19.18 53.15C19 52.61 18.81 52.07 18.6 51.54C18.44 51.14 18.29 50.73 18.15 50.31C17.92 49.66 17.69 49.02 17.46 48.37Q17.34 48.05 17.23 47.74C16.75 46.41 16.27 45.09 15.78 43.77C15.54 43.13 15.31 42.49 15.09 41.85C14.9 41.31 14.7 40.77 14.51 40.23C14.39 39.92 14.28 39.61 14.16 39.29C14.14 39.23 14.11 39.16 14.09 39.09C13.89 38.55 13.7 38.01 13.5 37.47C13.49 37.43 13.47 37.38 13.46 37.34C13.38 37.13 13.3 36.92 13.23 36.71C12.66 35.13 12.66 35.13 12.08 33.55C11.66 32.42 11.25 31.28 10.84 30.14C10.56 29.36 10.28 28.59 10 27.81C9.56 26.59 9.11 25.36 8.67 24.14C8.62 24.01 8.58 23.88 8.53 23.75C8.32 23.16 8.11 22.58 7.9 22C7.69 21.42 7.48 20.84 7.26 20.27C7.08 19.82 6.92 19.37 6.76 18.91C6.49 18.11 6.19 17.31 5.9 16.52C5.58 15.67 5.27 14.83 4.98 13.97C4.83 13.52 4.66 13.07 4.49 12.62C4.21 11.87 3.93 11.11 3.66 10.35C3.53 9.99 3.4 9.62 3.27 9.26C3.23 9.15 3.23 9.15 3.19 9.05C2.83 8.03 2.45 7.01 2.08 6C1.28 3.84 1.28 3.84 1.04 3.13C0.91 2.76 0.77 2.39 0.64 2.01C0.62 1.96 0.6 1.91 0.58 1.85C0.46 1.52 0.46 1.52 0.34 1.19C0.28 1.03 0.22 0.88 0.17 0.72C0.15 0.68 0.13 0.63 0.11 0.58C0.07 0.46 0.03 0.35 0 0.23L0 0.03ZM37 0.03C37.05 0.03 37.1 0.03 37.15 0.03C38.37 0.04 39.6 0.05 40.82 0.06C41.41 0.06 42 0.06 42.6 0.07C43.11 0.07 43.63 0.07 44.15 0.08C44.42 0.08 44.69 0.08 44.96 0.08C46.31 0.09 47.66 0.1 49.01 0.1C49.95 0.1 50.88 0.1 51.82 0.11C52.14 0.11 52.47 0.11 52.79 0.11C53.11 0.11 53.44 0.12 53.76 0.12C53.88 0.12 54 0.12 54.12 0.12C54.78 0.12 55.38 0.17 56.02 0.35C56.47 0.51 56.85 0.76 57.23 1.05C57.56 1.3 57.84 1.56 58.08 1.89C58.51 2.53 58.73 3.3 58.99 4.02C59.04 4.14 59.08 4.26 59.12 4.38C59.26 4.76 59.4 5.15 59.54 5.54C59.58 5.64 59.58 5.64 59.62 5.74C59.86 6.41 60.1 7.07 60.34 7.74C60.56 8.35 60.78 8.96 61 9.57C61.24 10.23 61.48 10.89 61.72 11.56C61.75 11.62 61.77 11.69 61.8 11.76C62.08 12.53 62.36 13.31 62.63 14.08C63.1 15.39 63.58 16.7 64.06 18.01C64.37 18.85 64.67 19.68 64.97 20.52C65.41 21.75 65.86 22.96 66.31 24.18C66.29 24.29 66.26 24.4 66.24 24.51C62.07 24.55 57.91 24.59 53.74 24.61C53.44 24.61 53.14 24.62 52.83 24.62C52.19 24.62 51.55 24.63 50.9 24.63C50.69 24.63 50.47 24.63 50.26 24.63C48.8 24.64 47.34 24.64 45.88 24.64C45.84 24.56 45.8 24.48 45.76 24.39C45.73 24.35 45.71 24.3 45.69 24.25C45.58 24.03 45.5 23.81 45.42 23.58C45.4 23.53 45.38 23.48 45.37 23.42C45.33 23.31 45.29 23.2 45.25 23.09C45.14 22.78 45.03 22.47 44.92 22.16C44.9 22.1 44.87 22.03 44.85 21.96C44.55 21.11 44.24 20.27 43.93 19.42L43.76 18.96C43.66 18.67 43.55 18.38 43.45 18.09C43.07 17.06 42.7 16.03 42.32 15C42.2 14.66 42.08 14.32 41.96 13.98C41.93 13.91 41.91 13.84 41.88 13.77C41.08 11.56 40.29 9.36 39.48 7.15C39.07 6.01 38.66 4.87 38.24 3.73C37.94 2.89 37.63 2.05 37.32 1.21C37.06 0.5 37.06 0.5 37 0.29L37 0.03ZM69.56 0.16C72.64 0.15 75.71 0.16 78.79 0.18C78.84 0.18 78.89 0.18 78.95 0.18C79 0.18 79.05 0.18 79.1 0.18C79.46 0.19 79.81 0.19 80.17 0.19C80.61 0.19 81.05 0.19 81.49 0.2C81.72 0.2 81.95 0.2 82.18 0.2C82.43 0.2 82.68 0.2 82.93 0.21C83.01 0.21 83.08 0.21 83.15 0.21C83.59 0.21 83.99 0.25 84.41 0.36C84.82 0.49 85.19 0.67 85.55 0.91C85.89 1.16 86.2 1.42 86.47 1.75C86.87 2.4 87.12 3.14 87.4 3.85C87.49 4.08 87.58 4.3 87.67 4.52C87.79 4.84 87.92 5.16 88.04 5.48C88.07 5.57 88.11 5.67 88.14 5.76C88.16 5.81 88.18 5.86 88.2 5.91C89.16 8.49 90.15 11.06 91.14 13.62C91.24 13.88 91.34 14.14 91.44 14.4C91.46 14.44 91.48 14.49 91.49 14.53C91.73 15.13 91.95 15.72 92.18 16.32C92.52 17.23 92.87 18.13 93.22 19.03C93.69 20.2 94.14 21.38 94.59 22.56C94.71 22.86 94.82 23.16 94.94 23.46C95.21 24.17 95.48 24.88 95.75 25.6C96.31 27.07 96.88 28.54 97.45 30.01L97.61 30.42C97.67 30.58 97.74 30.74 97.8 30.9C98 31.42 98.2 31.94 98.39 32.45C98.65 33.12 98.9 33.79 99.16 34.45C99.24 34.66 99.31 34.86 99.39 35.07C99.45 35.21 99.5 35.35 99.55 35.49L100.1 36.93C100.37 37.63 100.65 38.34 100.92 39.05L101.13 39.61C101.25 39.91 101.36 40.21 101.48 40.51C101.52 40.62 101.56 40.73 101.6 40.84C101.66 40.99 101.72 41.14 101.78 41.29C101.8 41.36 101.8 41.36 101.83 41.43C101.96 41.78 102.11 42.12 102.26 42.46C102.28 42.52 102.3 42.57 102.32 42.62L102.32 42.89C100.43 42.89 98.54 42.89 96.66 42.89C96.44 42.89 96.21 42.89 95.99 42.89C95.94 42.89 95.9 42.89 95.85 42.89C95.14 42.89 94.42 42.89 93.7 42.89C92.97 42.89 92.23 42.89 91.49 42.89C91.08 42.89 90.66 42.89 90.25 42.89C89.86 42.9 89.47 42.9 89.08 42.9C88.94 42.9 88.8 42.9 88.65 42.9C87.75 42.9 86.84 42.87 85.94 42.82C85.9 42.73 85.87 42.65 85.83 42.56L85.77 42.42C85.53 41.82 85.3 41.21 85.07 40.61C84.79 39.86 84.5 39.12 84.21 38.38C83.82 37.41 83.44 36.42 83.06 35.44C83.04 35.37 83.01 35.31 82.99 35.24C82.86 34.91 82.74 34.59 82.62 34.27C82.16 33.07 81.7 31.88 81.23 30.69C80.32 28.36 79.43 26.03 78.54 23.7C78.41 23.36 78.28 23.03 78.16 22.69C78.13 22.63 78.11 22.56 78.08 22.5C77.73 21.57 77.37 20.64 77 19.72C76.82 19.27 76.65 18.82 76.48 18.38C76.24 17.73 75.99 17.08 75.74 16.43C75.7 16.33 75.7 16.33 75.66 16.22C75.37 15.45 75.07 14.68 74.77 13.92C74.42 13.04 74.09 12.16 73.75 11.29L73.66 11.06C73.39 10.36 73.12 9.66 72.86 8.95C72.47 7.94 72.08 6.92 71.67 5.91C71.38 5.21 71.11 4.49 70.84 3.78C70.6 3.16 70.36 2.54 70.11 1.92C69.97 1.55 69.82 1.19 69.69 0.83C69.65 0.72 69.65 0.72 69.61 0.61C69.56 0.43 69.56 0.43 69.56 0.16ZM237 21.92L237 46.93C235.27 46.93 233.55 46.91 231.82 46.87L231.82 22.79C232.16 22.7 232.47 22.63 232.81 22.57L232.94 22.55C233.08 22.53 233.22 22.5 233.35 22.48L233.64 22.43C233.85 22.4 234.05 22.36 234.25 22.33C234.51 22.29 234.77 22.24 235.02 22.2C235.22 22.17 235.42 22.13 235.62 22.1C235.72 22.09 235.81 22.07 235.91 22.05C236.04 22.03 236.17 22.01 236.31 21.99L236.54 21.95C236.73 21.92 236.73 21.92 237 21.92ZM136.93 22.19L152.45 22.19C152.45 23.47 152.45 23.47 152.36 23.83C152.28 24.11 152.18 24.38 152.05 24.64C151.9 24.85 151.9 24.85 151.78 24.97L151.25 25.24L148 25.31C147.74 25.77 147.74 25.77 147.48 26.24C147.44 26.3 147.41 26.36 147.38 26.42C147.33 26.51 147.33 26.51 147.27 26.6C147.08 26.95 146.88 27.29 146.68 27.63L152.31 27.63C152.34 27.65 152.36 27.67 152.38 27.7C152.38 29.27 152.38 30.84 152.38 32.41C152.38 33.14 152.39 33.87 152.39 34.6C152.39 35.24 152.39 35.88 152.39 36.51C152.39 36.85 152.39 37.19 152.39 37.52C152.39 37.77 152.39 38.01 152.39 38.25L152.39 38.48C152.39 38.59 152.39 38.71 152.39 38.83C152.39 38.9 152.39 38.97 152.39 39.04C152.39 39.13 152.39 39.22 152.39 39.3C152.39 39.37 152.39 39.37 152.39 39.44C152.39 39.78 152.35 40.09 152.31 40.43L148.67 40.43L148.67 30.61L139.32 30.61C139.34 33.59 139.36 36.57 139.38 39.64C139.65 39.11 139.91 38.59 140.18 38.04C140.41 37.62 140.64 37.19 140.88 36.77C140.98 36.58 141.08 36.4 141.17 36.21C141.6 35.42 142.05 34.67 142.57 33.93C142.82 33.76 143.05 33.61 143.34 33.51C144.82 33.17 146.3 33.18 147.81 33.2C147.71 33.53 147.57 33.83 147.41 34.13C147.37 34.21 147.37 34.21 147.33 34.28C147.25 34.45 147.16 34.61 147.08 34.77C147.02 34.89 146.96 35 146.9 35.11C146.57 35.75 146.24 36.39 145.9 37.03C145.72 37.37 145.54 37.72 145.36 38.06C145.33 38.13 145.29 38.19 145.26 38.25C145.16 38.45 145.06 38.65 144.95 38.84C144.55 39.61 144.15 40.37 143.75 41.14C143.48 41.65 143.22 42.16 142.95 42.67C142.71 43.14 142.47 43.6 142.22 44.07C141.96 44.57 141.69 45.07 141.43 45.58C141.13 46.17 140.82 46.75 140.51 47.33L135.47 47.33C135.62 46.89 135.62 46.89 135.73 46.67C135.76 46.62 135.78 46.57 135.81 46.52C135.83 46.47 135.86 46.42 135.89 46.36C135.92 46.31 135.95 46.25 135.97 46.2C136.07 46.02 136.16 45.84 136.25 45.66C136.31 45.54 136.38 45.41 136.44 45.29C136.63 44.93 136.81 44.57 137 44.21C137.02 44.17 137.05 44.12 137.07 44.07C137.32 43.6 137.56 43.12 137.81 42.65C138.03 42.21 138.26 41.78 138.48 41.35C138.63 41.07 138.77 40.79 138.92 40.5L135.6 40.43C135.61 39.23 135.62 38.03 135.63 36.83C135.63 36.27 135.63 35.72 135.64 35.16C135.65 32.67 135.67 30.18 135.74 27.7C136.45 27.63 137.15 27.62 137.86 27.62C137.97 27.62 138.08 27.62 138.19 27.62C138.48 27.62 138.77 27.62 139.07 27.62C139.36 27.62 139.66 27.63 139.96 27.63C140.54 27.63 141.12 27.63 141.7 27.63C141.72 27.58 141.74 27.53 141.76 27.47C141.85 27.27 141.95 27.09 142.06 26.9C142.1 26.82 142.15 26.75 142.19 26.67C142.24 26.59 142.28 26.51 142.33 26.43C142.38 26.36 142.42 26.28 142.47 26.2C142.65 25.88 142.84 25.56 143.03 25.24L135.54 25.24C135.62 25 135.69 24.79 135.79 24.56L135.87 24.4C135.89 24.35 135.92 24.3 135.94 24.24C135.97 24.18 135.99 24.13 136.02 24.07C136.08 23.95 136.13 23.83 136.19 23.71C136.27 23.53 136.36 23.34 136.44 23.16L136.6 22.81C136.63 22.76 136.65 22.7 136.68 22.65C136.74 22.52 136.8 22.38 136.86 22.25C136.89 22.23 136.91 22.21 136.93 22.19ZM119.03 22.25C119.05 24.67 119.07 27.08 119.08 29.5L119.08 29.77C119.08 30.6 119.09 31.43 119.09 32.26C119.09 36 119.02 39.73 118.6 43.45C118.59 43.5 118.59 43.54 118.58 43.59C118.47 44.63 118.34 45.68 118.19 46.72C118.16 46.92 118.13 47.13 118.1 47.33L112.79 47.33C112.87 45.89 112.87 45.89 112.93 45.38L112.97 45.02C112.97 44.95 112.98 44.89 112.99 44.83C113.45 40.54 113.6 36.31 113.6 32.01C113.6 31.75 113.6 31.49 113.6 31.23C113.6 30.7 113.6 30.17 113.6 29.64C113.6 29.55 113.6 29.46 113.6 29.37C113.6 29.33 113.6 29.28 113.6 29.24L113.6 28.57C113.6 28.3 113.6 28.03 113.6 27.76C113.6 26.21 113.59 24.66 113.59 23.12C113.68 23.1 113.78 23.07 113.87 23.05C113.92 23.04 113.98 23.03 114.03 23.02C114.24 22.97 114.46 22.94 114.68 22.9L114.81 22.88C114.96 22.86 115.11 22.83 115.25 22.81C115.35 22.8 115.46 22.78 115.56 22.76C115.77 22.73 115.99 22.7 116.2 22.66C116.48 22.62 116.75 22.58 117.03 22.53C117.24 22.5 117.45 22.47 117.66 22.43C117.76 22.42 117.86 22.4 117.96 22.39C118.11 22.36 118.25 22.34 118.39 22.32C118.47 22.31 118.55 22.29 118.63 22.28C118.83 22.25 118.83 22.25 119.03 22.25ZM133.88 22.25L133.88 47.33L128.44 47.33L128.44 23.12C128.79 23.03 129.11 22.96 129.46 22.9L129.6 22.88C129.75 22.86 129.9 22.83 130.05 22.81C130.15 22.8 130.26 22.78 130.36 22.76C130.58 22.73 130.8 22.7 131.01 22.66C131.29 22.62 131.57 22.58 131.85 22.53C132.07 22.5 132.28 22.47 132.5 22.43C132.6 22.42 132.7 22.4 132.8 22.39C132.95 22.36 133.09 22.34 133.23 22.32C133.32 22.31 133.4 22.29 133.48 22.28C133.68 22.25 133.68 22.25 133.88 22.25ZM158.28 22.25L192.57 22.25C192.57 22.86 192.55 23.4 192.37 23.99C192.26 24.29 192.14 24.57 191.97 24.84L191.84 24.84L191.84 24.97C191.66 25.06 191.49 25.15 191.31 25.24L177.71 25.24L177.78 30.28L177.78 32.6L178.88 32.6C180.09 32.6 181.31 32.6 182.52 32.6C183.26 32.6 183.99 32.6 184.73 32.6C185.37 32.6 186.01 32.6 186.65 32.6C186.99 32.6 187.33 32.6 187.67 32.6C189.57 32.59 191.46 32.62 193.36 32.67C193.36 32.79 193.36 32.9 193.36 33.01C193.37 33.08 193.37 33.14 193.37 33.21C193.36 33.51 193.31 33.79 193.25 34.09C193.23 34.18 193.23 34.18 193.21 34.27C193.11 34.76 192.99 35.21 192.77 35.66C192.65 35.87 192.52 36.07 192.37 36.25C192.21 36.39 192.09 36.49 191.9 36.59L180.5 36.65C180.8 36.89 181.11 37.13 181.43 37.38C182.59 38.29 182.59 38.29 182.7 38.38L182.93 38.57C183.13 38.72 183.32 38.87 183.51 39.02C183.94 39.36 184.37 39.7 184.81 40.04C185.28 40.4 185.75 40.77 186.22 41.14C186.41 41.29 186.61 41.44 186.8 41.59L187.03 41.78L187.15 41.87C187.49 42.14 187.49 42.14 187.61 42.23L187.84 42.42C188.03 42.56 188.22 42.71 188.41 42.86L188.64 43.04L188.75 43.13C188.97 43.3 189.19 43.47 189.4 43.64C190.02 44.12 190.64 44.61 191.24 45.1C191.94 45.68 192.65 46.25 193.36 46.8C193.42 46.85 193.49 46.9 193.55 46.95C193.69 47.06 193.82 47.16 193.96 47.27L193.96 47.4L187.06 47.4L185.87 46.47C185.54 46.22 185.2 45.96 184.87 45.71C184.68 45.56 184.5 45.42 184.31 45.28C183.98 45.02 183.65 44.77 183.32 44.51C182.77 44.1 182.23 43.68 181.68 43.26C181.28 42.95 180.87 42.64 180.46 42.32C179.92 41.91 179.38 41.49 178.83 41.07C178.38 40.72 177.92 40.37 177.47 40.02C177.11 39.75 176.76 39.48 176.41 39.21C176.14 39.01 175.88 38.8 175.61 38.6C175.22 38.3 174.84 38.01 174.46 37.71C174.28 37.79 174.15 37.88 173.99 38.01C173.92 38.08 173.84 38.15 173.76 38.21C173.68 38.29 173.6 38.36 173.51 38.43C173.47 38.47 173.43 38.5 173.39 38.54C173.23 38.68 173.06 38.81 172.9 38.94C172.63 39.16 172.37 39.38 172.11 39.6C171.79 39.88 171.46 40.15 171.13 40.41C170.93 40.58 170.72 40.76 170.52 40.93C170.2 41.2 169.87 41.47 169.54 41.74C169.34 41.91 169.13 42.08 168.93 42.26C168.6 42.53 168.28 42.8 167.95 43.07C167.74 43.24 167.54 43.41 167.33 43.58C167.01 43.86 166.69 44.13 166.36 44.39C166.15 44.56 165.95 44.74 165.74 44.91C165.42 45.18 165.1 45.45 164.77 45.72C164.56 45.89 164.36 46.06 164.15 46.24C163.68 46.64 163.22 47.03 162.73 47.4L155.76 47.4L155.89 47.13C155.98 47.07 155.98 47.07 156.06 47C156.54 46.63 157.02 46.25 157.49 45.86C157.78 45.63 158.07 45.39 158.37 45.16C158.97 44.69 159.55 44.21 160.13 43.71C160.36 43.51 160.59 43.32 160.83 43.12C161.17 42.85 161.49 42.57 161.82 42.29C162.12 42.02 162.43 41.76 162.74 41.5C163 41.28 163.27 41.05 163.53 40.82C163.8 40.59 164.07 40.36 164.35 40.14C164.68 39.87 165.01 39.58 165.33 39.3C165.64 39.04 165.94 38.78 166.25 38.52C166.52 38.29 166.78 38.06 167.04 37.84C167.39 37.54 167.73 37.26 168.08 36.97C168.24 36.84 168.24 36.84 168.43 36.65L155.96 36.59C156.5 35.06 156.5 35.06 156.69 34.56L156.75 34.39C156.82 34.22 156.89 34.05 156.95 33.88L157.09 33.53C157.2 33.24 157.31 32.96 157.42 32.67C158.87 32.59 160.31 32.58 161.76 32.57C162.11 32.57 162.47 32.56 162.82 32.56C163.49 32.55 164.16 32.55 164.83 32.54C165.59 32.53 166.35 32.53 167.11 32.52C168.68 32.5 170.25 32.49 171.81 32.47C171.81 32.43 171.81 32.38 171.82 32.33C171.85 31.4 171.89 30.46 171.94 29.53C171.94 29.42 171.95 29.31 171.96 29.21C171.97 28.99 171.98 28.77 171.99 28.55C172.01 28.27 172.02 28 172.04 27.72C172.05 27.5 172.06 27.28 172.07 27.06C172.08 26.96 172.08 26.86 172.09 26.76C172.1 26.61 172.1 26.47 172.11 26.33C172.12 26.21 172.12 26.21 172.12 26.08C172.14 25.8 172.18 25.52 172.21 25.24L157.02 25.24C157.41 24.23 157.85 23.24 158.28 22.25ZM204.03 22.58C204.21 22.58 204.39 22.58 204.57 22.58L204.57 22.58C204.96 22.58 205.35 22.58 205.74 22.58C206.3 22.58 206.85 22.58 207.41 22.58C208.32 22.58 209.23 22.58 210.14 22.58C211.02 22.58 211.9 22.58 212.78 22.58L212.95 22.58L213.77 22.58C216.03 22.58 218.29 22.58 220.55 22.59C220.66 22.85 220.76 23.11 220.87 23.37C220.91 23.48 220.91 23.48 220.95 23.6C221.22 24.26 221.48 24.94 221.73 25.61C221.83 25.87 221.92 26.13 222.02 26.38C222.05 26.45 222.07 26.52 222.1 26.58C222.3 27.13 222.51 27.68 222.72 28.23C222.76 28.31 222.79 28.4 222.82 28.48C222.95 28.82 223.07 29.15 223.2 29.48C223.29 29.71 223.38 29.94 223.47 30.17C223.51 30.28 223.51 30.28 223.55 30.38C223.57 30.45 223.6 30.51 223.62 30.58C223.64 30.63 223.67 30.69 223.69 30.75C223.7 30.79 223.72 30.83 223.73 30.88L223.73 31.01L217.96 31.01C217.77 30.58 217.58 30.16 217.41 29.72C217.39 29.66 217.37 29.61 217.35 29.56C217.29 29.4 217.23 29.23 217.16 29.07C217.08 28.84 216.99 28.61 216.9 28.38C216.88 28.32 216.86 28.26 216.83 28.2C216.69 27.83 216.54 27.46 216.4 27.09L216.34 26.95C216.25 26.73 216.16 26.52 216.07 26.3L215.98 26.07C215.95 26 215.93 25.94 215.9 25.87L215.84 25.7L215.84 25.51L205.9 25.51C205.85 25.62 205.81 25.72 205.76 25.84C205.71 25.95 205.65 26.06 205.59 26.16C205.54 26.26 205.54 26.26 205.49 26.35L205.38 26.56C205.34 26.63 205.3 26.7 205.26 26.77C204.86 27.5 204.45 28.23 204.04 28.96L203.11 30.61L197.27 30.61C197.38 30.31 197.49 30.04 197.63 29.76C197.66 29.72 197.68 29.67 197.7 29.63C197.77 29.49 197.85 29.35 197.92 29.21L198.07 28.91C198.2 28.66 198.33 28.41 198.46 28.16C198.6 27.89 198.75 27.62 198.89 27.34C198.96 27.2 199.04 27.06 199.11 26.92C199.42 26.32 199.73 25.72 200.04 25.12C200.46 24.29 200.89 23.47 201.32 22.65C202.11 22.57 202.9 22.58 203.7 22.58C203.81 22.58 203.92 22.58 204.03 22.58ZM230.1 23.52L230.1 45.41L225.13 45.41L225.13 24.31C225.43 24.22 225.7 24.15 226.01 24.1L226.25 24.06L226.5 24.02L226.77 23.98C226.96 23.95 227.14 23.92 227.33 23.89C227.56 23.85 227.8 23.81 228.04 23.77C228.22 23.74 228.41 23.71 228.59 23.68C228.72 23.66 228.85 23.63 228.98 23.61L229.22 23.57L229.43 23.54C229.63 23.52 229.63 23.52 230.1 23.52ZM126.45 24.18L126.45 45.21L120.95 45.21L120.95 25.04C126.31 24.18 126.31 24.18 126.45 24.18ZM197.87 32.14L222.54 32.14L222.54 41.63L207.55 41.63C207.6 41.2 207.65 40.89 207.8 40.51C207.82 40.46 207.83 40.42 207.85 40.37C208.03 39.92 208.23 39.49 208.51 39.11C208.59 39.02 208.67 38.93 208.75 38.84C209.51 38.77 210.28 38.75 211.05 38.74L211.46 38.73C211.76 38.72 212.04 38.72 212.34 38.71C212.7 38.71 213.07 38.7 213.44 38.69C213.73 38.68 214.02 38.68 214.3 38.67C214.44 38.67 214.57 38.67 214.71 38.66C214.9 38.66 215.09 38.66 215.28 38.65L215.45 38.65C215.89 38.64 216.34 38.64 216.78 38.64C216.87 38.64 216.95 38.64 217.04 38.64L217.04 35.39L203.38 35.39L203.38 43.95L221.94 43.95C222.41 44.21 222.41 44.21 222.58 44.38C222.72 44.56 222.8 44.74 222.88 44.95C223.02 45.36 223.1 45.77 223.14 46.21L223.14 46.93L197.87 46.93L197.87 32.14ZM147.44 41.69C147.7 41.74 147.95 41.82 148.2 41.89L148.39 41.95C148.56 42.01 148.71 42.07 148.87 42.16C149.36 42.53 149.76 42.99 150.13 43.48C150.36 43.81 150.57 44.14 150.79 44.48L150.88 44.62C151.43 45.47 151.94 46.33 152.45 47.2L152.45 47.33L147.41 47.33C147.1 46.88 146.8 46.44 146.49 45.97L146.2 45.55C145.81 44.97 145.42 44.38 145.05 43.78C144.78 43.35 144.5 42.94 144.22 42.52C144.17 42.45 144.11 42.37 144.06 42.3Q143.88 42.03 143.69 41.76L143.69 41.56C144.92 41.42 146.23 41.43 147.44 41.69ZM112.26 51.91L122.01 51.91C121.88 52.31 121.88 52.31 121.55 52.97L115.11 52.97L115.11 55.29L121.68 55.29L121.68 59.94L112.2 59.94L112.2 58.81L118.83 58.81C118.81 57.72 118.78 56.62 118.76 55.49L118.16 56.16C118.1 56.22 118.03 56.29 117.96 56.36L112.26 56.36L112.26 51.91ZM123.07 51.91L125.79 51.91L125.79 54.23L130.96 54.23L130.96 59.94L128.24 59.94C128.22 58.14 128.2 56.35 128.18 54.5C127.96 54.76 127.74 55.02 127.51 55.29L125.79 55.29L125.79 59.94L123.07 59.94L123.07 51.91ZM149.99 51.91L160.14 51.91C160.01 52.24 160.01 52.24 159.54 53.04L156.36 53.04L156.36 59.94L153.51 59.94L153.51 53.04L149.99 53.04L149.99 51.91ZM161.2 51.91L163.92 51.91L163.92 53.7L161.2 53.7L161.2 51.91ZM192.43 51.91L195.15 51.91L195.15 54.23L200.32 54.23L200.32 59.94L197.61 59.94C197.58 58.14 197.56 56.35 197.54 54.5C197.32 54.76 197.1 55.02 196.88 55.29L195.15 55.29L195.15 59.94L192.43 59.94L192.43 51.91ZM140.98 54.23L148.93 54.23L148.93 59.87L146.21 59.87C146.19 58.1 146.17 56.33 146.15 54.5L145.42 55.29L143.69 55.29L143.69 59.87L140.98 59.87L140.98 54.23ZM161.2 54.23L163.92 54.23L163.92 59.94L161.2 59.94L161.2 54.23ZM164.91 54.23L172.67 54.23L172.67 58.94L173.47 58.94C173.27 59.31 173.06 59.6 172.81 59.94L164.91 59.94L164.91 54.23ZM174.53 54.23L182.49 54.23L182.49 59.87L179.77 59.87C179.75 58.1 179.72 56.33 179.7 54.5C179.31 54.87 179.31 54.87 178.97 55.29L177.25 55.29L177.25 59.87L174.53 59.87L174.53 54.23ZM183.48 54.23L191.37 54.23C191.31 54.56 191.31 54.56 190.97 55.29L186.2 55.29L186.2 58.88L191.37 58.88C191.23 59.24 191.03 59.59 190.84 59.94L183.48 59.94L183.48 54.23ZM210.34 54.23L218.1 54.23L218.1 58.94L218.89 58.94C218.82 59.06 218.75 59.18 218.67 59.29L218.55 59.49C218.45 59.64 218.34 59.79 218.23 59.94L210.34 59.94L210.34 54.23ZM219.89 54.23L227.84 54.23L227.84 59.87L225.19 59.87C225.17 58.1 225.15 56.33 225.13 54.5C224.86 54.76 224.6 55.02 224.33 55.29L222.67 55.29L222.67 59.87L219.89 59.87L219.89 54.23ZM228.97 54.23L237 54.23L237 62L229.3 62C229.17 61.71 229.04 61.43 228.91 61.13L228.91 61L234.28 61L234.28 59.94L228.97 59.94L228.97 54.23ZM132.02 54.3L134.67 54.3L134.67 58.81L137.2 58.81L137.2 54.3L139.91 54.3L139.91 59.94L137.2 59.94C137.17 59.7 137.15 59.46 137.13 59.21C136.98 59.45 136.82 59.69 136.66 59.94L132.02 59.94L132.02 54.3ZM201.39 54.3L204.1 54.3L204.1 58.81L206.56 58.81L206.56 54.3L209.34 54.3L209.34 59.94L206.56 59.94C206.54 59.7 206.51 59.46 206.49 59.21C206.34 59.45 206.19 59.69 206.03 59.94L201.39 59.94L201.39 54.3Z" fill="#8A0E1C" fill-opacity="1.000000" fill-rule="evenodd"/>
</svg>
